<?xml version="1.0" encoding="UTF-8"?>
<svg xmlns="http://www.w3.org/2000/svg" width="27" height="27" viewBox="0 0 27 27" fill="none">
  <path d="m22.67 15.231-.306-.159a8.3 8.3 0 0 0-7.93.06l-.082.04a7.86 7.86 0 0 0-4.016 6.671v4.82h5.953v-7.588c0-.338.367-.558.673-.378L23.69 22.5l2.976-5.018zM6.972 20.273l.286-.16c2.324-1.394 3.894-3.883 3.914-6.75v-.1c0-2.848-1.57-5.358-3.914-6.752l-.286-.159-3.995-2.25L0 9.12l6.728 3.804a.427.427 0 0 1 0 .757L0 17.485l2.977 5.038zM10.336 4.5v.32c.061 2.668 1.509 5.237 4.016 6.671l.082.04a8.3 8.3 0 0 0 7.93.06l.286-.16 3.996-2.25-2.977-5.019-6.728 3.804c-.305.16-.672-.04-.672-.378V0h-5.933z" fill="#f7003b"></path>
</svg>
